<?xml version="1.0" encoding="utf-8"?>
<!-- Generator: Adobe Illustrator 27.6.1, SVG Export Plug-In . SVG Version: 6.00 Build 0)  -->
<svg version="1.1" id="OXID_ESHOP" xmlns="http://www.w3.org/2000/svg" xmlns:xlink="http://www.w3.org/1999/xlink" x="0px" y="0px"
	 viewBox="0 0 396.8 127.6" style="enable-background:new 0 0 396.8 127.6;" xml:space="preserve">
<style type="text/css">
	.st0{fill:#FFFFFF;}
</style>
<rect x="250.6" y="42.5" width="103.7" height="42.5"/>
<g id="ESHOP">
	<path class="st0" d="M274.7,69.7c0,0.5-0.4,0.9-0.9,0.9h-8.3c-0.5,0-0.9-0.4-0.9-0.9V57.9c0-0.5,0.4-0.9,0.9-0.9h8.1
		c0.5,0,0.9,0.4,0.9,0.9c0,0.5-0.4,0.9-0.9,0.9h-7.2v4.2h6.4c0.5,0,0.9,0.4,0.9,0.9c0,0.5-0.4,0.9-0.9,0.9h-6.4v4.2h7.4
		C274.3,68.8,274.7,69.2,274.7,69.7z"/>
	<path class="st0" d="M284.9,70.8c-0.4,0-0.9,0-1.4-0.1c-0.8-0.1-1.6-0.4-2.2-0.7c-0.8-0.4-1.3-0.9-1.5-1.5
		c-0.2-0.6,0.4-1.4,1.1-1.1c0.2,0.1,0.3,0.2,0.4,0.4c0.6,0.8,1.6,1.1,2.5,1.2c0.8,0.1,1.6,0.1,2.3,0c0.8-0.2,1.6-0.6,1.9-1.4
		c0.2-0.4,0.2-0.8,0.1-1.2c-0.4-1.2-1.9-1.6-3.1-1.9c-0.8-0.2-1.7-0.4-2.4-0.7c-0.8-0.3-1.7-0.8-2.1-1.6c-0.6-1-0.5-2.5-0.1-3.2
		c1.1-2.1,3.1-2.4,4.3-2.4c0.9,0,1.8,0.2,2.6,0.4c1,0.4,1.7,1,1.9,1.6c0.1,0.3,0,0.6-0.2,0.8c-0.2,0.3-0.6,0.4-0.9,0.2
		c-0.1-0.1-0.2-0.1-0.2-0.2c-0.3-0.4-0.9-0.7-1.5-1c-0.5-0.2-1.1-0.2-1.7-0.2c-1.3,0-2.9,0.5-2.9,2.1c0,1.5,1.3,1.9,4.1,2.6
		c3.7,0.9,4.2,2.9,3.8,4.7C289.1,70.3,286.1,70.8,284.9,70.8z"/>
	<path class="st0" d="M305.7,57.9v11.9c0,0.5-0.4,0.9-0.9,0.9c-0.5,0-0.9-0.4-0.9-0.9v-5.2h-7.4v5.2c0,0.5-0.4,0.9-0.9,0.9
		s-0.9-0.4-0.9-0.9V57.9c0-0.5,0.4-0.9,0.9-0.9s0.9,0.4,0.9,0.9v4.9h7.4v-4.9c0-0.5,0.4-0.9,0.9-0.9C305.4,57,305.7,57.4,305.7,57.9
		z"/>
	<path class="st0" d="M317.9,70.9c-1,0-1.9-0.2-2.8-0.6c-0.8-0.4-1.6-0.9-2.3-1.5c-0.6-0.7-1.2-1.4-1.5-2.2
		c-0.4-0.9-0.6-1.8-0.6-2.7c0-1,0.2-1.9,0.6-2.7c0.4-0.8,0.9-1.6,1.5-2.2c0.7-0.7,1.4-1.2,2.3-1.5c0.9-0.4,1.8-0.6,2.8-0.6
		c1.9,0,3.6,0.7,5,2.1c0.6,0.6,1.1,1.4,1.5,2.2c0.4,0.9,0.5,1.8,0.5,2.7c0,1-0.2,1.9-0.5,2.7c-0.3,0.8-0.8,1.6-1.5,2.2
		C321.5,70.1,319.8,70.9,317.9,70.9z M317.9,58.5c-0.7,0-1.4,0.1-2.1,0.4c-0.7,0.3-1.2,0.7-1.7,1.2c-0.5,0.5-0.9,1.1-1.2,1.7
		c-0.3,0.6-0.4,1.3-0.4,2c0,0.7,0.1,1.4,0.4,2c0.3,0.6,0.7,1.2,1.2,1.7c1,1,2.4,1.6,3.8,1.6c1.4,0,2.8-0.6,3.8-1.6
		c0.5-0.5,0.8-1.1,1.1-1.7c0.3-0.7,0.4-1.3,0.4-2.1c0-1.4-0.5-2.7-1.5-3.7C320.7,59.1,319.3,58.5,317.9,58.5z"/>
	<path class="st0" d="M330.8,70.6c-0.5,0-0.9-0.4-0.9-0.9V57.9c0-0.5,0.4-0.9,0.9-0.9h5.1c0.1,0,0.5,0,1,0.1c0.8,0.2,1.4,0.6,2,1.1
		c0.4,0.4,0.7,0.8,0.9,1.4c0.2,0.6,0.3,1.3,0.3,2c0,1.6-0.7,2.9-2,3.6c-0.9,0.5-2.2,0.8-3.7,0.8c-0.5,0-0.9-0.4-0.9-0.9
		c0-0.5,0.4-0.9,0.9-0.9c1.2,0,2.2-0.2,2.9-0.6c0.8-0.4,1.1-1.1,1.1-2.1c0-0.7-0.1-1.3-0.4-1.7c-0.2-0.3-0.5-0.6-0.8-0.8
		c-0.6-0.4-1.3-0.4-1.3-0.4h-4.3v11C331.6,70.2,331.2,70.6,330.8,70.6z"/>
</g>
<g id="OXID">
	<path d="M42.5,66.5c0,10.8,7.2,18.6,21.7,18.6H77c14.5,0,21.7-7.8,21.7-18.6v-5.3c0-10.8-7.2-18.6-21.7-18.6H64.3
		c-14.5,0-21.7,7.8-21.7,18.6V66.5z M66.9,50.7h7.3c8.6,0,11.9,3.2,11.9,10.6v4.9c0,7.3-3.3,10.6-11.9,10.6h-7.3
		c-8.5,0-11.8-3.3-11.8-10.6v-4.9C55.1,53.9,58.4,50.7,66.9,50.7z"/>
	<g>
		<path d="M129.8,72l-13,13h-16.6l20.6-20.5l0,0l9-9l0,0l13-13h16.6l-21.3,21.3L159.4,85h-16.6L129.8,72z"/>
	</g>
	<path d="M165.5,85h12.9V42.5h-12.9V85z"/>
	<path d="M187.5,85h32.1c14.5,0,21.8-7.8,21.8-18.6v-5.3c0-10.8-7.3-18.6-21.8-18.6h-32.1V85z M199.8,51.4h16.9
		c7.9,0,12.1,3,12.1,10.3v4.1c0,7.4-4.2,10.4-12.1,10.4h-16.9V51.4z"/>
	<path d="M126.8,52.5l-8.3,8.2l-18.3-18.2h16.6L126.8,52.5z"/>
</g>
</svg>
